<?xml version="1.0" encoding="UTF-8"?>
<svg width="600" height="600" version="1.1" viewBox="0 0 158.75 158.75" xmlns="http://www.w3.org/2000/svg" xmlns:cc="http://creativecommons.org/ns#" xmlns:dc="http://purl.org/dc/elements/1.1/" xmlns:rdf="http://www.w3.org/1999/02/22-rdf-syntax-ns#" xmlns:xlink="http://www.w3.org/1999/xlink">
 <defs>
  <radialGradient id="radialGradient1221" cx="29.104" cy="56.621" r="59.796" gradientTransform="matrix(1.3385 0 0 1.3385 40.816 36)" gradientUnits="userSpaceOnUse">
   <stop stop-color="#f7eaab" offset="0"/>
   <stop stop-color="#bfbb73" offset="1"/>
  </radialGradient>
 </defs>
 <metadata>
  <rdf:RDF>
   <cc:Work rdf:about="">
    <dc:format>image/svg+xml</dc:format>
    <dc:type rdf:resource="http://purl.org/dc/dcmitype/StillImage"/>
    <dc:title/>
   </cc:Work>
  </rdf:RDF>
 </metadata>
 <g transform="translate(0,-31.75)">
  <g>
   <rect x="-.26458" y="31.75" width="160.07" height="160.07" fill="url(#radialGradient1221)" style="paint-order:stroke fill markers"/>
  </g>
 </g>
 <g transform="translate(0 -138.25)">
  <g transform="matrix(1.0043 0 0 1.0043 1.0828 10.066)" opacity=".5">
   <g fill="none" stroke="#8d8d8d">
    <g stroke-linecap="round" stroke-linejoin="round">
     <circle cx="23.866" cy="190.42" r="63.358" stroke-width="1.3"/>
     <ellipse cx="23.276" cy="191" rx="42.558" ry="42.571" stroke-width=".87335"/>
     <ellipse cx="22.99" cy="190.52" rx="22.261" ry="22.261" stroke-width=".6"/>
    </g>
    <g stroke-width="1.6">
     <path d="m3.1795 258.49 8.3012-4.3526h21.96l8.174 5.2938"/>
     <path d="m18.36 254.67-2.1167 6.8792"/>
     <path d="m27.62 254.14 1.3229 6.8792"/>
    </g>
    <path d="m-11.313 278.11c0.66345-0.46651 30.353-83.74 30.353-83.74l3.8149-3.4989 3.3173 2.3326 35.329 98.669" stroke-linecap="round" stroke-linejoin="bevel" stroke-width="2.4592"/>
    <path d="m78.875 299.93-17.374-8.0661-79.653-3.8642" stroke-width="2.459"/>
   </g>
   <g fill="#9d9d9d">
    <circle cx="35.558" cy="253.34" r="6.8792" opacity="1"/>
    <circle cx="48.522" cy="249.11" r="6.8792" opacity="1"/>
    <circle cx="21.799" cy="254.14" r="6.8792" opacity="1"/>
    <circle cx="8.5703" cy="252.29" r="6.8792" opacity="1"/>
    <circle cx="61.487" cy="242.5" r="6.8792" opacity="1"/>
    <circle cx="-4.3943" cy="248.05" r="6.8792" opacity="1"/>
    <circle cx="-15.771" cy="240.91" r="6.8792" opacity="1"/>
    <circle cx="71.276" cy="232.97" r="6.8792" opacity="1"/>
    <circle cx="-25.561" cy="230.32" r="6.8792" opacity="1"/>
    <circle cx="42.172" cy="249.9" r="6.8792" opacity="1"/>
    <circle cx="28.679" cy="252.29" r="6.8792" opacity="1"/>
    <circle cx="13.333" cy="252.02" r="6.8792" opacity="1"/>
    <circle cx="1.4265" cy="248.32" r="6.8792" opacity="1"/>
    <circle cx="-9.9506" cy="242.76" r="6.8792" opacity="1"/>
    <circle cx="-20.798" cy="235.35" r="6.8792" opacity="1"/>
    <circle cx="54.872" cy="246.2" r="6.8792" opacity="1"/>
    <circle cx="65.72" cy="237.2" r="6.8792" opacity="1"/>
    <circle cx="60.164" cy="233.5" r="6.8792" opacity="1"/>
    <circle cx="49.052" cy="238.26" r="6.8792" opacity="1"/>
    <circle cx="37.939" cy="242.5" r="6.8792" opacity="1"/>
    <circle cx="26.562" cy="244.61" r="6.8792" opacity="1"/>
    <circle cx="14.92" cy="245.41" r="6.8792" opacity="1"/>
    <circle cx="3.2786" cy="242.5" r="6.8792" opacity="1"/>
    <circle cx="-7.5693" cy="238.53" r="6.8792" opacity="1"/>
    <circle cx="-16.301" cy="234.29" r="6.8792" opacity="1"/>
    <circle cx="47.993" cy="234.03" r="6.8792" opacity="1"/>
    <circle cx="36.352" cy="235.88" r="6.8792" opacity="1"/>
    <circle cx="25.239" cy="236.67" r="6.8792" opacity="1"/>
    <circle cx="13.333" cy="236.67" r="6.8792" opacity="1"/>
    <circle cx="2.4848" cy="234.82" r="6.8792" opacity="1"/>
    <circle cx="-7.3047" cy="231.65" r="6.8792" opacity="1"/>
    <circle cx="24.71" cy="229" r="6.8792" opacity="1"/>
    <circle cx="49.845" cy="227.15" r="6.8792" opacity="1"/>
   </g>
   <circle cx="36.352" cy="228.21" r="6.8792" fill-opacity="0" opacity="1"/>
   <g fill="#9d9d9d">
    <circle cx="14.127" cy="227.68" r="6.8792" opacity="1"/>
    <circle cx="3.5432" cy="227.94" r="6.8792" opacity="1"/>
    <circle cx="-7.8339" cy="227.68" r="6.8792" opacity="1"/>
    <circle cx="36.881" cy="227.94" r="6.8792" opacity="1"/>
   </g>
   <g fill="none" stroke="#8d8d8d" stroke-linecap="round" stroke-linejoin="round">
    <circle cx="23.651" cy="190.9" r="70.985" stroke-width="1.8"/>
    <ellipse cx="23.201" cy="190.56" rx="51.83" ry="51.83" stroke-width="2"/>
    <circle cx="23.009" cy="190.75" r="33.618" stroke-width="2.2"/>
    <circle cx="22.965" cy="190.64" r="15.328" stroke-width="2.4"/>
   </g>
   <circle cx="22.902" cy="190.59" r="6.6146" fill="#8d8d8d" opacity="1" stroke="#8d8d8d" stroke-linecap="round" stroke-linejoin="round" stroke-width="1.0357"/>
   <path d="m22.858 190.9 0.26458-35.983" fill="none" stroke="#8d8d8d" stroke-width="2.4"/>
   <ellipse cx="22.981" cy="148.98" rx="10.53" ry="10.53" fill="#7d7d7d" opacity="1"/>
   <g fill="none" stroke="#8d8d8d">
    <g>
     <path d="m3.1795 258.49 39.621-135.71" stroke-width="1.8"/>
     <path d="m41.615 259.43-38.308-136.26" stroke-width="1.8"/>
     <path d="m43.218 123.26-4.6507 4.0179-24.093-0.8913-2.6736-5.7188 18.202-0.41313 13.216 3.0053" stroke-width="1.2"/>
    </g>
    <path d="m29.737 118.94z" stroke-width=".26458px"/>
    <g>
     <path d="m22.858 120.79-0.52917 5.8208" stroke-width="1.6"/>
     <path d="m32.118 120.79-0.52917 6.35" stroke-width="1.6"/>
     <path d="m-25.032 271.6 175.95 8.4667" stroke-width="2.4"/>
     <path d="m-31.78 265.36 175.95 8.4667" stroke-width="1.4"/>
    </g>
    <path d="m148.53 271.07" stroke-width=".26458px"/>
   </g>
   <circle cx="127.63" cy="271.07" r="6.8792" fill="#9d9d9d" opacity="1"/>
   <circle cx="114.14" cy="270.28" r="6.8792" fill="#9d9d9d" opacity="1"/>
   <g fill="none" opacity="1" stroke="#8d8d8d" stroke-linecap="round" stroke-linejoin="round" stroke-width="1.5647" style="paint-order:stroke fill markers">
    <path d="m143.55 269.23v7.2201l0.0376-0.0169v-7.2166z" points="143.54891,276.44752 143.58654,276.43066 143.58654,269.21405 143.54891,269.22742 " style="paint-order:stroke fill markers"/>
    <path d="m143.55 276.45 6.8 3.6651 0.0379-0.0206-6.8003-3.6614z" points="150.34887,280.11264 150.38681,280.09206 143.58654,276.43066 143.54891,276.44752 " style="paint-order:stroke fill markers"/>
    <path d="m143.59 269.21 6.8003 2.9041-1e-5 7.9739-6.8003-3.6614z" points="150.38682,272.11817 150.38681,280.09206 143.58654,276.43066 143.58654,269.21405 " style="paint-order:stroke fill markers"/>
    <path d="m143.55 269.23 6.8 2.9071 0.0379-0.0163-6.8003-2.9041z" points="150.34887,272.13449 150.38682,272.11817 143.58654,269.21405 143.54891,269.22742 " style="paint-order:stroke fill markers"/>
    <path d="m150.35 272.13v7.9782l0.0379-0.0206 1e-5 -7.9739z" points="150.34887,280.11264 150.38681,280.09206 150.38682,272.11817 150.34887,272.13449 " style="paint-order:stroke fill markers"/>
    <path d="m143.55 269.23 6.8 2.9071v7.9782l-6.8-3.6651z" points="150.34887,272.13449 150.34887,280.11264 143.54891,276.44752 143.54891,269.22742 " style="paint-order:stroke fill markers"/>
   </g>
   <path d="m-26.27 284.32c0.95804-0.52916 43.83-94.985 43.83-94.985l5.5087-3.9688 4.7902 2.6458 51.016 111.92" fill="none" stroke="#8d8d8d" stroke-linecap="round" stroke-linejoin="bevel" stroke-width="3.1473"/>
   <circle cx="141.13" cy="271.86" r="6.8792" fill="#9d9d9d" opacity="1"/>
   <ellipse cx="-4.2971" cy="260.31" rx=".16213" ry=".64851" fill="#9d9d9d" opacity="1" stroke="#8d8d8d" stroke-linecap="round" stroke-linejoin="bevel" stroke-width="1.2905" style="paint-order:stroke fill markers"/>
  </g>
  <g>
   <g fill="#ce181e" aria-label="B">
    <path d="m94.844 218.81q8.3256 2.54 12.136 8.4667 3.81 5.9267 3.81 12.982 0 9.8778-6.35 16.51-6.35 6.6322-21.731 6.6322h-32.032v-86.501h28.222q15.381 0 21.872 6.4911 6.4911 6.35 6.4911 15.663 0 14.676-12.418 19.756zm-26.388-2.8222h8.89q12.136 0 12.136-16.792 0-8.0433-3.2456-11.853-3.1044-3.9511-8.89-3.9511h-8.89zm11.994 40.922q6.4911 0 9.4544-4.2333 3.1044-4.2333 3.1044-12.418 0-7.4789-3.2456-12.7-3.2456-5.2211-9.3133-5.2211h-11.994v34.572z" fill="#ce181e" stroke-width=".26458"/>
   </g>
  </g>
 </g>
</svg>
