<?xml version="1.0" encoding="UTF-8"?>
<svg width="676.13" height="56.056" version="1.1" viewBox="0 0 178.89 14.831" xmlns="http://www.w3.org/2000/svg" xmlns:cc="http://creativecommons.org/ns#" xmlns:dc="http://purl.org/dc/elements/1.1/" xmlns:rdf="http://www.w3.org/1999/02/22-rdf-syntax-ns#">
 <metadata>
  <rdf:RDF>
   <cc:Work rdf:about="">
    <dc:format>image/svg+xml</dc:format>
    <dc:type rdf:resource="http://purl.org/dc/dcmitype/StillImage"/>
    <dc:title/>
   </cc:Work>
  </rdf:RDF>
 </metadata>
 <g transform="translate(-28.228 -261.81)">
  <g stroke-width=".26458" aria-label="B I N G O Master Board">
   <g fill="#ce181e">
    <path d="m35.516 269q1.3737 0.4191 2.0024 1.397t0.62865 2.1421q0 1.6298-1.0478 2.7242-1.0478 1.0943-3.5856 1.0943h-5.2853v-14.273h4.6567q2.5379 0 3.6089 1.071 1.071 1.0478 1.071 2.5844 0 2.4215-2.0489 3.2597zm-4.354-0.46567h1.4668q2.0024 0 2.0024-2.7707 0-1.3272-0.53552-1.9558-0.51223-0.65193-1.4668-0.65193h-1.4668zm1.9791 6.7522q1.071 0 1.56-0.6985 0.51223-0.6985 0.51223-2.0489 0-1.234-0.53552-2.0955-0.53552-0.86148-1.5367-0.86148h-1.9791v5.7044z" style="font-feature-settings:normal;font-variant-caps:normal;font-variant-ligatures:normal;font-variant-numeric:normal"/>
    <path d="m48.715 276.36h-2.9337v-14.273h2.9337z" style="font-feature-settings:normal;font-variant-caps:normal;font-variant-ligatures:normal;font-variant-numeric:normal"/>
    <path d="m68.876 262.09v14.273h-3.12l-6.496-11.269v11.269h-1.7462v-14.273h3.0967l6.5193 11.269v-11.269z" style="font-feature-settings:normal;font-variant-caps:normal;font-variant-ligatures:normal;font-variant-numeric:normal"/>
    <path d="m87.973 276.36h-1.4436l-0.5588-1.5367q-1.234 1.8161-3.4226 1.8161-3.1432 0-4.4006-1.8394-1.234-1.8627-1.234-5.5647 0-2.5146 0.51223-4.1212 0.53552-1.6298 1.8161-2.468 1.3039-0.8382 3.5623-0.8382 2.468 0 3.5158 1.0245 1.071 1.0012 1.3039 2.9803l-2.3516 0.37253q-0.1397-1.5367-0.72178-2.3516-0.5588-0.81492-1.7462-0.81492-1.1642 0-1.8161 0.65193-0.62865 0.62865-0.88477 1.9791-0.25612 1.3272-0.25612 3.5856 0 3.1898 0.58208 4.68 0.58208 1.4901 2.1188 1.4901 1.4436 0 2.1654-0.9779 0.72178-0.9779 0.74507-3.1665v-0.81492h-2.3982v-1.4203h4.9128z" style="font-feature-settings:normal;font-variant-caps:normal;font-variant-ligatures:normal;font-variant-numeric:normal"/>
    <path d="m101.68 276.64q-3.0268 0-4.4704-1.7928-1.4203-1.8161-1.4203-5.6113 0-3.8418 1.4203-5.6346 1.4436-1.7928 4.4704-1.7928 3.0268 0 4.4704 1.8161 1.4436 1.7928 1.4436 5.6113 0 3.7952-1.4436 5.6113-1.4203 1.7928-4.4704 1.7928zm0-1.1874q1.5134 0 2.2352-1.5367 0.74507-1.5367 0.74507-4.68 0-3.1898-0.74507-4.7032-0.72178-1.5367-2.2352-1.5367t-2.2352 1.5134q-0.72178 1.5134-0.72178 4.7265 0 3.1898 0.72178 4.7032 0.72178 1.5134 2.2352 1.5134z" style="font-feature-settings:normal;font-variant-caps:normal;font-variant-ligatures:normal;font-variant-numeric:normal"/>
   </g>
   <g fill="#948a54">
    <path d="m121.66 276.36h-0.8763l-1.9473-8.3086-1.0386 7.2863q0.53552 0.30833 1.4605 0.42192l-0.0649 0.60043h-3.8947l0.0811-0.60043q0.86008-0.0974 1.3794-0.42192l1.3956-8.7792q-0.53551-0.32455-1.3794-0.42192l0.0811-0.60043h2.8074l2.0609 8.9415 4.9008-8.9415h2.6127l-0.0811 0.60043q-0.82762 0.0974-1.3794 0.42192l-1.3956 8.7792q0.53551 0.30833 1.4605 0.42192l-0.0649 0.60043h-4.2841l0.0811-0.60043q0.86007-0.11359 1.3794-0.42192l1.2658-7.2863z" style="font-feature-settings:normal;font-variant-caps:normal;font-variant-ligatures:normal;font-variant-numeric:normal"/>
    <path d="m134.93 274.76-0.0487 0.35701q0 0.24342 0.32456 0.24342 0.32455 0 0.84384-0.30833l0.16228 0.51929q-1.0548 0.90875-1.85 0.90875-0.55174 0-0.73025-0.21096-0.1785-0.21096-0.1785-0.50306 0-0.30833 0.12982-0.98989-1.1522 1.7039-2.353 1.7039-1.1846 0-1.639-0.74648-0.45438-0.7627-0.45438-2.0934t0.42192-2.4342q0.42192-1.1197 1.282-1.85 0.86007-0.74648 1.85-0.74648 0.9899 0 1.8986 0.42192l0.82762-0.38946 0.47061 0.22719zm-3.3105 0.8763q0.68157 0 1.4118-1.1684 0.73025-1.1846 1.0224-2.9859l0.27587-1.7039q-0.60043-0.38947-1.282-0.38947-0.68156 0-1.2982 0.73025-0.60043 0.71403-0.89253 1.6552-0.27587 0.94121-0.27587 1.8175 0 2.0447 1.0386 2.0447z" style="font-feature-settings:normal;font-variant-caps:normal;font-variant-ligatures:normal;font-variant-numeric:normal"/>
    <path d="m140.68 269.37q-0.38946 0-0.73025 0.25964-0.34078 0.25965-0.34078 0.73025 0 0.47061 0.2921 0.81139t0.89253 0.84384q0.61665 0.48684 0.97366 0.94122 0.37324 0.45437 0.37324 1.0061 0 1.2008-0.82761 1.8662-0.82762 0.64911-1.9636 0.64911-1.1197 0-2.1421-0.68156l0.48683-1.9636 0.66534 0.11359q-0.0325 0.32456-0.0325 0.73025t0.2921 0.71402q0.30833 0.30833 1.0873 0.30833 0.35701 0 0.71402-0.25965 0.35701-0.25964 0.35701-0.82761 0-0.27587-0.1136-0.42192-0.0974-0.14605-0.16227-0.22719-0.0487-0.0811-0.19474-0.21096-0.14605-0.14605-0.21096-0.21096-0.2921-0.2921-0.60043-0.53552-0.2921-0.24342-0.53551-0.48683-0.22719-0.25965-0.43815-0.68157-0.21096-0.43815-0.21096-0.89253 0-1.1197 0.7627-1.7039 0.76271-0.60042 1.8337-0.60042t2.0772 0.55174l-0.53552 1.8337h-0.64911q0.0162-0.21096 0.0162-0.5842t-0.17851-0.71402q-0.1785-0.35701-0.95744-0.35701z" style="font-feature-settings:normal;font-variant-caps:normal;font-variant-ligatures:normal;font-variant-numeric:normal"/>
    <path d="m145.55 274.9q0 0.56797 0.56797 0.56797 0.56798 0 1.7851-0.82762l0.38947 0.55175q-0.50306 0.40569-0.79516 0.61665-0.2921 0.19474-0.8763 0.43815-0.5842 0.22719-1.2009 0.22719t-0.95744-0.34078q-0.32455-0.35701-0.32455-0.84385 0-0.48683 0.81138-5.631h-1.1684l0.0974-0.53552q0.95744-0.25964 1.3794-0.66534 0.42192-0.42192 0.84385-1.2495h0.64911l-0.25965 1.5741h2.5964l-0.17851 0.8763h-2.564l-0.19473 1.1846q-0.60043 3.6512-0.60043 4.057z" style="font-feature-settings:normal;font-variant-caps:normal;font-variant-ligatures:normal;font-variant-numeric:normal"/>
    <path d="m155.57 270.36q0 1.2009-1.3469 2.0285-1.3469 0.81139-3.3916 0.81139v0.37324q0 1.0386 0.38946 1.5579 0.38947 0.50306 1.0548 0.50306 0.90875 0 2.2232-0.9899l0.47061 0.60043q-0.50306 0.50306-1.3144 0.8763-0.81139 0.35701-1.7039 0.35701-1.3469 0-1.9798-0.77893-0.61665-0.77893-0.61665-1.8824 0-2.3368 1.1035-3.7486 1.1197-1.428 2.8885-1.428 1.1035 0 1.6552 0.50306 0.56797 0.50306 0.56797 1.2171zm-2.3368-0.97367q-0.89253 0-1.5092 0.84385-0.60042 0.84384-0.81138 2.1745 1.4443 0 2.3368-0.5842 0.89252-0.5842 0.89252-1.493 0-0.38947-0.24341-0.66534-0.22719-0.27588-0.66534-0.27588z" style="font-feature-settings:normal;font-variant-caps:normal;font-variant-ligatures:normal;font-variant-numeric:normal"/>
    <path d="m156.95 276.36q0.94121-5.988 0.94121-6.2315 0-0.25964-0.24342-0.35701-0.24341-0.0974-0.79516-0.0974l-0.0811-0.53551 2.2557-0.50306 0.4057 0.40569-0.22719 1.5741q0.98989-1.9798 2.1421-1.9798 0.60042 0 0.92498 0.38946 0.34078 0.37324 0.34078 0.86008 0 0.4706-0.2921 0.81138-0.2921 0.34079-0.74648 0.34079-0.45437 0-0.60042-0.27587 0.11359-0.27588 0.11359-0.64912 0-0.38946-0.2921-0.38946-0.55174 0-1.2008 1.1359-0.63289 1.136-0.90876 3.1482l-0.30833 2.353z" style="font-feature-settings:normal;font-variant-caps:normal;font-variant-ligatures:normal;font-variant-numeric:normal"/>
    <path d="m172.35 265.54q3.278 0 3.278 2.207 0 2.3206-2.4342 2.9048 1.8824 0.60043 1.8824 2.2394 0 1.4767-1.0873 2.4828-1.071 0.9899-3.1806 0.9899h-3.9434l0.0974-0.60043q0.95744-0.11359 1.4605-0.42192l1.3956-8.7792q-0.51929-0.30833-1.3956-0.42192l0.0811-0.60043zm-1.0386 5.5174h-0.77893l-0.61666 3.846q-0.0162 0.0487-0.0162 0.14605 0 0.27587 0.24342 0.40569 0.24342 0.1136 0.8763 0.1136 1.1846 0 1.8824-0.6978 0.71403-0.71402 0.71403-1.9798 0-0.8763-0.5842-1.3469-0.56798-0.48683-1.7202-0.48683zm0.2921-0.79517q2.5964 0 2.5964-2.4991 0-0.74648-0.48684-1.1035-0.48683-0.35701-1.2982-0.34079-0.81139 0-1.0061 0.1136-0.17851 0.11359-0.24342 0.55174l-0.51929 3.278z" style="font-feature-settings:normal;font-variant-caps:normal;font-variant-ligatures:normal;font-variant-numeric:normal"/>
    <path d="m179.5 275.7q0.92499 0 1.6552-1.2982 0.74648-1.2982 0.74648-3.132 0-1.85-1.136-1.85-0.94121 0-1.6715 1.3144-0.73025 1.2982-0.73025 3.132t1.1359 1.8337zm0 0.77893q-1.2982 0-1.9798-0.71402-0.66534-0.73025-0.66534-2.0609 0-2.0609 1.0386-3.5539 1.0386-1.5092 2.8723-1.5092 1.2982 0 1.9636 0.73025 0.68157 0.71402 0.68157 2.0447 0 2.0772-1.0386 3.5701-1.0386 1.493-2.8723 1.493z" style="font-feature-settings:normal;font-variant-caps:normal;font-variant-ligatures:normal;font-variant-numeric:normal"/>
    <path d="m190.65 274.76-0.0487 0.35701q0 0.24342 0.32456 0.24342 0.32455 0 0.84384-0.30833l0.16228 0.51929q-1.0548 0.90875-1.85 0.90875-0.55174 0-0.73025-0.21096-0.1785-0.21096-0.1785-0.50306 0-0.30833 0.12982-0.98989-1.1522 1.7039-2.353 1.7039-1.1846 0-1.639-0.74648-0.45438-0.7627-0.45438-2.0934t0.42192-2.4342q0.42192-1.1197 1.282-1.85 0.86008-0.74648 1.85-0.74648t1.8986 0.42192l0.82762-0.38946 0.4706 0.22719zm-3.3105 0.8763q0.68156 0 1.4118-1.1684 0.73025-1.1846 1.0224-2.9859l0.27588-1.7039q-0.60043-0.38947-1.282-0.38947-0.68156 0-1.2982 0.73025-0.60043 0.71403-0.89253 1.6552-0.27587 0.94121-0.27587 1.8175 0 2.0447 1.0386 2.0447z" style="font-feature-settings:normal;font-variant-caps:normal;font-variant-ligatures:normal;font-variant-numeric:normal"/>
    <path d="m193.56 276.36q0.94121-5.988 0.94121-6.2315 0-0.25964-0.24342-0.35701-0.24341-0.0974-0.79516-0.0974l-0.0811-0.53551 2.2557-0.50306 0.4057 0.40569-0.22719 1.5741q0.98989-1.9798 2.1421-1.9798 0.60042 0 0.92498 0.38946 0.34078 0.37324 0.34078 0.86008 0 0.4706-0.2921 0.81138-0.2921 0.34079-0.74648 0.34079-0.45437 0-0.60042-0.27587 0.11359-0.27588 0.11359-0.64912 0-0.38946-0.2921-0.38946-0.55174 0-1.2008 1.1359-0.63289 1.136-0.90876 3.1482l-0.30833 2.353z" style="font-feature-settings:normal;font-variant-caps:normal;font-variant-ligatures:normal;font-variant-numeric:normal"/>
    <path d="m205.14 268.98t0.42193-2.4017q0-0.68157-1.2495-0.81139l0.0811-0.53552 2.353-0.1785 0.37324 0.40569-1.5092 9.3472q-0.0487 0.24342-0.0487 0.30833 0 0.24342 0.32455 0.24342 0.32456 0 0.84385-0.30833l0.16227 0.51929q-1.0548 0.90875-1.8337 0.90875-0.56798 0-0.74648-0.21096-0.17851-0.21096-0.17851-0.50306 0-0.30833 0.12982-0.98989-1.1522 1.7039-2.353 1.7039-1.1846 0-1.639-0.74648-0.45438-0.7627-0.45438-2.0447 0-1.2982 0.4057-2.4017 0.42192-1.1197 1.2658-1.8824 0.84385-0.7627 1.85-0.7627 1.0224 0 1.8013 0.34078zm-2.8399 6.6534q0.68157 0 1.4118-1.1684 0.73025-1.1846 1.0224-2.9859l0.27587-1.7039q-0.61665-0.40569-1.2171-0.40569-1.071 0-1.8013 1.3794t-0.73025 2.8399q0 2.0447 1.0386 2.0447z" style="font-feature-settings:normal;font-variant-caps:normal;font-variant-ligatures:normal;font-variant-numeric:normal"/>
   </g>
  </g>
  <flowRoot transform="matrix(.26458 0 0 .26458 0 244.08)" fill="#000000" font-family="sans-serif" font-size="40px" letter-spacing="0px" word-spacing="0px" style="line-height:1.25" xml:space="preserve"><flowRegion><rect x="418" y="103" width="6" height="42"/></flowRegion><flowPara/></flowRoot>
 </g>
</svg>
