<?xml version="1.0" encoding="UTF-8"?>
<svg width="1280" height="720" version="1.1" viewBox="0 0 338.67 190.5" xmlns="http://www.w3.org/2000/svg" xmlns:cc="http://creativecommons.org/ns#" xmlns:dc="http://purl.org/dc/elements/1.1/" xmlns:rdf="http://www.w3.org/1999/02/22-rdf-syntax-ns#">
 <metadata>
  <rdf:RDF>
   <cc:Work rdf:about="">
    <dc:format>image/svg+xml</dc:format>
    <dc:type rdf:resource="http://purl.org/dc/dcmitype/StillImage"/>
    <dc:title/>
   </cc:Work>
  </rdf:RDF>
 </metadata>
 <g transform="translate(0 -106.5)" opacity=".4">
  <g transform="matrix(.79739 -.19117 .19117 .79739 17.971 78.374)" style="">
   <g style="">
    <g fill="none" stroke="#8d8d8d">
     <g stroke-linecap="round" stroke-linejoin="round">
      <circle transform="matrix(1.1859 .28432 -.28432 1.1859 -29.309 28.246)" cx="29.054" cy="83.923" r="63.358" stroke-width="1.3"/>
      <ellipse transform="matrix(1.1859 .28432 -.28432 1.1859 -29.309 28.246)" cx="28.464" cy="84.5" rx="42.558" ry="42.571" stroke-width=".87335"/>
      <ellipse transform="matrix(1.1859 .28432 -.28432 1.1859 -29.309 28.246)" cx="28.178" cy="84.018" rx="22.261" ry="22.261" stroke-width=".6"/>
     </g>
     <g stroke-width="1.6">
      <path transform="matrix(1.1859 .28432 -.28432 1.1859 -29.309 28.246)" d="m8.3676 151.99 8.3012-4.3526h21.96l8.174 5.2938"/>
      <path transform="matrix(1.1859 .28432 -.28432 1.1859 -29.309 28.246)" d="m23.548 148.17-2.1167 6.8792"/>
      <path transform="matrix(1.1859 .28432 -.28432 1.1859 -29.309 28.246)" d="m32.808 147.64 1.3229 6.8792"/>
     </g>
     <path transform="matrix(1.1859 .28432 -.28432 1.1859 -29.309 28.246)" d="m-6.1253 171.61c0.66345-0.46651 30.353-83.74 30.353-83.74l3.8149-3.4989 3.3173 2.3326 35.329 98.669" stroke-linecap="round" stroke-linejoin="bevel" stroke-width="2.4592"/>
     <path transform="matrix(1.1859 .28432 -.28432 1.1859 -29.309 28.246)" d="m84.063 193.43-17.374-8.0661-79.653-3.8642" stroke-width="2.459"/>
    </g>
    <g fill="#9d9d9d">
     <circle transform="matrix(1.1859 .28432 -.28432 1.1859 -29.309 28.246)" cx="40.746" cy="146.84" r="6.8792" opacity="1"/>
     <circle transform="matrix(1.1859 .28432 -.28432 1.1859 -29.309 28.246)" cx="53.71" cy="142.61" r="6.8792" opacity="1"/>
     <circle transform="matrix(1.1859 .28432 -.28432 1.1859 -29.309 28.246)" cx="26.988" cy="147.64" r="6.8792" opacity="1"/>
     <circle transform="matrix(1.1859 .28432 -.28432 1.1859 -29.309 28.246)" cx="13.758" cy="145.79" r="6.8792" opacity="1"/>
     <circle transform="matrix(1.1859 .28432 -.28432 1.1859 -29.309 28.246)" cx="66.675" cy="136" r="6.8792" opacity="1"/>
     <circle transform="matrix(1.1859 .28432 -.28432 1.1859 -29.309 28.246)" cx=".79375" cy="141.55" r="6.8792" opacity="1"/>
     <circle transform="matrix(1.1859 .28432 -.28432 1.1859 -29.309 28.246)" cx="-10.583" cy="134.41" r="6.8792" opacity="1"/>
     <circle transform="matrix(1.1859 .28432 -.28432 1.1859 -29.309 28.246)" cx="76.465" cy="126.47" r="6.8792" opacity="1"/>
     <circle transform="matrix(1.1859 .28432 -.28432 1.1859 -29.309 28.246)" cx="-20.373" cy="123.82" r="6.8792" opacity="1"/>
     <circle transform="matrix(1.1859 .28432 -.28432 1.1859 -29.309 28.246)" cx="47.36" cy="143.4" r="6.8792" opacity="1"/>
     <circle transform="matrix(1.1859 .28432 -.28432 1.1859 -29.309 28.246)" cx="33.867" cy="145.79" r="6.8792" opacity="1"/>
     <circle transform="matrix(1.1859 .28432 -.28432 1.1859 -29.309 28.246)" cx="18.521" cy="145.52" r="6.8792" opacity="1"/>
     <circle transform="matrix(1.1859 .28432 -.28432 1.1859 -29.309 28.246)" cx="6.6146" cy="141.82" r="6.8792" opacity="1"/>
     <circle transform="matrix(1.1859 .28432 -.28432 1.1859 -29.309 28.246)" cx="-4.7625" cy="136.26" r="6.8792" opacity="1"/>
     <circle transform="matrix(1.1859 .28432 -.28432 1.1859 -29.309 28.246)" cx="-15.61" cy="128.85" r="6.8792" opacity="1"/>
     <circle transform="matrix(1.1859 .28432 -.28432 1.1859 -29.309 28.246)" cx="60.06" cy="139.7" r="6.8792" opacity="1"/>
     <circle transform="matrix(1.1859 .28432 -.28432 1.1859 -29.309 28.246)" cx="70.908" cy="130.7" r="6.8792" opacity="1"/>
     <circle transform="matrix(1.1859 .28432 -.28432 1.1859 -29.309 28.246)" cx="65.352" cy="127" r="6.8792" opacity="1"/>
     <circle transform="matrix(1.1859 .28432 -.28432 1.1859 -29.309 28.246)" cx="54.24" cy="131.76" r="6.8792" opacity="1"/>
     <circle transform="matrix(1.1859 .28432 -.28432 1.1859 -29.309 28.246)" cx="43.127" cy="136" r="6.8792" opacity="1"/>
     <circle transform="matrix(1.1859 .28432 -.28432 1.1859 -29.309 28.246)" cx="31.75" cy="138.11" r="6.8792" opacity="1"/>
     <circle transform="matrix(1.1859 .28432 -.28432 1.1859 -29.309 28.246)" cx="20.108" cy="138.91" r="6.8792" opacity="1"/>
     <circle transform="matrix(1.1859 .28432 -.28432 1.1859 -29.309 28.246)" cx="8.4667" cy="136" r="6.8792" opacity="1"/>
     <circle transform="matrix(1.1859 .28432 -.28432 1.1859 -29.309 28.246)" cx="-2.3812" cy="132.03" r="6.8792" opacity="1"/>
     <circle transform="matrix(1.1859 .28432 -.28432 1.1859 -29.309 28.246)" cx="-11.112" cy="127.79" r="6.8792" opacity="1"/>
     <circle transform="matrix(1.1859 .28432 -.28432 1.1859 -29.309 28.246)" cx="53.181" cy="127.53" r="6.8792" opacity="1"/>
     <circle transform="matrix(1.1859 .28432 -.28432 1.1859 -29.309 28.246)" cx="41.54" cy="129.38" r="6.8792" opacity="1"/>
     <circle transform="matrix(1.1859 .28432 -.28432 1.1859 -29.309 28.246)" cx="30.427" cy="130.18" r="6.8792" opacity="1"/>
     <circle transform="matrix(1.1859 .28432 -.28432 1.1859 -29.309 28.246)" cx="18.521" cy="130.18" r="6.8792" opacity="1"/>
     <circle transform="matrix(1.1859 .28432 -.28432 1.1859 -29.309 28.246)" cx="7.6729" cy="128.32" r="6.8792" opacity="1"/>
     <circle transform="matrix(1.1859 .28432 -.28432 1.1859 -29.309 28.246)" cx="-2.1167" cy="125.15" r="6.8792" opacity="1"/>
     <circle transform="matrix(1.1859 .28432 -.28432 1.1859 -29.309 28.246)" cx="29.898" cy="122.5" r="6.8792" opacity="1"/>
     <circle transform="matrix(1.1859 .28432 -.28432 1.1859 -29.309 28.246)" cx="55.033" cy="120.65" r="6.8792" opacity="1"/>
    </g>
    <circle transform="matrix(1.1859 .28432 -.28432 1.1859 -29.309 28.246)" cx="41.54" cy="121.71" r="6.8792" fill-opacity="0" opacity="1"/>
    <g fill="#9d9d9d">
     <circle transform="matrix(1.1859 .28432 -.28432 1.1859 -29.309 28.246)" cx="19.315" cy="121.18" r="6.8792" opacity="1"/>
     <circle transform="matrix(1.1859 .28432 -.28432 1.1859 -29.309 28.246)" cx="8.7313" cy="121.44" r="6.8792" opacity="1"/>
     <circle transform="matrix(1.1859 .28432 -.28432 1.1859 -29.309 28.246)" cx="-2.6458" cy="121.18" r="6.8792" opacity="1"/>
     <circle transform="matrix(1.1859 .28432 -.28432 1.1859 -29.309 28.246)" cx="42.069" cy="121.44" r="6.8792" opacity="1"/>
    </g>
    <g fill="none" stroke="#8d8d8d" stroke-linecap="round" stroke-linejoin="round">
     <circle transform="matrix(1.1859 .28432 -.28432 1.1859 .9713 -98.054)" cx="28.84" cy="190.9" r="70.985" stroke-width="1.8"/>
     <ellipse transform="matrix(1.1859 .28432 -.28432 1.1859 .9713 -98.054)" cx="28.389" cy="190.56" rx="51.83" ry="51.83" stroke-width="2"/>
     <circle transform="matrix(1.1859 .28432 -.28432 1.1859 .9713 -98.054)" cx="28.197" cy="190.75" r="33.618" stroke-width="2.2"/>
     <circle transform="matrix(1.1859 .28432 -.28432 1.1859 .9713 -98.054)" cx="28.153" cy="190.64" r="15.328" stroke-width="2.4"/>
    </g>
    <circle transform="matrix(1.1859 .28432 -.28432 1.1859 .9713 -98.054)" cx="28.09" cy="190.59" r="6.6146" fill="#8d8d8d" opacity="1" stroke="#8d8d8d" stroke-linecap="round" stroke-linejoin="round" stroke-width="1.0357"/>
    <path transform="matrix(1.1859 .28432 -.28432 1.1859 .9713 -98.054)" d="m28.046 190.9 0.26458-35.983" fill="none" stroke="#8d8d8d" stroke-width="2.4"/>
    <ellipse transform="matrix(1.1859 .28432 -.28432 1.1859 .9713 -98.054)" cx="28.169" cy="148.98" rx="10.53" ry="10.53" fill="#7d7d7d" opacity="1"/>
    <g fill="none" stroke="#8d8d8d">
     <g>
      <path transform="matrix(1.1859 .28432 -.28432 1.1859 .9713 -98.054)" d="m8.3676 258.49 39.621-135.71" stroke-width="1.8"/>
      <path transform="matrix(1.1859 .28432 -.28432 1.1859 .9713 -98.054)" d="m46.803 259.43-38.308-136.26" stroke-width="1.8"/>
      <path transform="matrix(1.1859 .28432 -.28432 1.1859 .9713 -98.054)" d="m48.406 123.26-4.6507 4.0179-24.093-0.8913-2.6736-5.7188 18.202-0.41313 13.216 3.0053" stroke-width="1.2"/>
     </g>
     <path transform="matrix(1.1859 .28432 -.28432 1.1859 .9713 -98.054)" d="m34.925 118.94z" stroke-width=".26458px"/>
     <g>
      <path transform="matrix(1.1859 .28432 -.28432 1.1859 .9713 -98.054)" d="m28.046 120.79-0.52917 5.8208" stroke-width="1.6"/>
      <path transform="matrix(1.1859 .28432 -.28432 1.1859 .9713 -98.054)" d="m37.306 120.79-0.52917 6.35" stroke-width="1.6"/>
      <path transform="matrix(1.1859 .28432 -.28432 1.1859 .9713 -98.054)" d="m-19.844 271.6 175.95 8.4667" stroke-width="2.4"/>
      <path transform="matrix(1.1859 .28432 -.28432 1.1859 .9713 -98.054)" d="m-26.592 265.36 175.95 8.4667" stroke-width="1.4"/>
     </g>
     <path transform="matrix(1.1859 .28432 -.28432 1.1859 .9713 -98.054)" d="m153.72 271.07" stroke-width=".26458px"/>
    </g>
    <circle transform="matrix(1.1859 .28432 -.28432 1.1859 .9713 -98.054)" cx="132.82" cy="271.07" r="6.8792" fill="#9d9d9d" opacity="1"/>
    <circle transform="matrix(1.1859 .28432 -.28432 1.1859 .9713 -98.054)" cx="119.33" cy="270.28" r="6.8792" fill="#9d9d9d" opacity="1"/>
    <g transform="matrix(1.1859 .28432 -.28432 1.1859 .9713 -98.054)" fill="none" opacity="1" stroke="#8d8d8d" stroke-linecap="round" stroke-linejoin="round" stroke-width="1.5647" style="paint-order:stroke fill markers">
     <path d="m148.74 269.23v7.2201l0.0376-0.0169 1e-5 -7.2166z" points="148.73702,276.44752 148.77464,276.43066 148.77465,269.21405 148.73702,269.22742 " style="paint-order:stroke fill markers"/>
     <path d="m148.74 276.45 6.8 3.6651 0.0379-0.0206-6.8003-3.6614z" points="155.53698,280.11264 155.57493,280.09206 148.77464,276.43066 148.73702,276.44752 " style="paint-order:stroke fill markers"/>
     <path d="m148.77 269.21 6.8003 2.9041v7.9739l-6.8003-3.6614z" points="155.57493,272.11817 155.57493,280.09206 148.77464,276.43066 148.77465,269.21405 " style="paint-order:stroke fill markers"/>
     <path d="m148.74 269.23 6.8 2.9071 0.0379-0.0163-6.8003-2.9041z" points="155.53698,272.13449 155.57493,272.11817 148.77465,269.21405 148.73702,269.22742 " style="paint-order:stroke fill markers"/>
     <path d="m155.54 272.13v7.9782l0.0379-0.0206v-7.9739z" points="155.53698,280.11264 155.57493,280.09206 155.57493,272.11817 155.53698,272.13449 " style="paint-order:stroke fill markers"/>
     <path d="m148.74 269.23 6.8 2.9071v7.9782l-6.8-3.6651z" points="155.53698,272.13449 155.53698,280.11264 148.73702,276.44752 148.73702,269.22742 " style="paint-order:stroke fill markers"/>
    </g>
    <path transform="matrix(1.1859 .28432 -.28432 1.1859 .9713 -98.054)" d="m-21.082 284.32c0.95804-0.52916 43.83-94.985 43.83-94.985l5.5087-3.9688 4.7902 2.6458 51.016 111.92" fill="none" stroke="#8d8d8d" stroke-linecap="round" stroke-linejoin="bevel" stroke-width="3.1473"/>
    <circle transform="matrix(1.1859 .28432 -.28432 1.1859 .9713 -98.054)" cx="146.31" cy="271.86" r="6.8792" fill="#9d9d9d" opacity="1"/>
    <rect x="192.63" y="151.01" width="104.79" height="125.96" fill-opacity="0" opacity="1" stroke="#8d8d8d" stroke-linecap="round" stroke-linejoin="bevel" stroke-width="1.2842" style="paint-order:stroke fill markers"/>
    <g fill="none" stroke="#9d9d9d" stroke-width=".95564">
     <path d="m192.11 171.18h105.83"/>
     <path d="m192.11 192.34h105.83"/>
     <path d="m192.11 213.51h105.83"/>
     <path d="m192.11 234.68h105.83"/>
     <path d="m192.11 255.84h105.83"/>
     <path d="m213.76 277.49v-105.83"/>
     <path d="m234.92 277.49v-105.83"/>
     <path d="m256.09 277.49v-105.83"/>
     <path d="m277.26 277.49v-105.83"/>
    </g>
    <path transform="matrix(.8169 0 0 .84001 50.223 37.297)" d="m243.95 230.59-5.4839-3.1715-5.7216 2.7195 1.3217-6.1956-4.3545-4.6011 6.3008-0.65754 3.0303-5.5632 2.5724 5.7892 6.2273 1.1629-4.7109 4.2354z" fill="#8d8d8d" opacity="1" style="paint-order:stroke fill markers"/>
    <rect x="192" y="151.02" width="105.42" height="19.958" fill="#9d9d9d" opacity="1" stroke-opacity="0" style="paint-order:stroke fill markers"/>
   </g>
  </g>
 </g>
</svg>
